<?xml version="1.0" standalone="no"?>
<!DOCTYPE svg PUBLIC "-//W3C//DTD SVG 20010904//EN"
 "http://www.w3.org/TR/2001/REC-SVG-20010904/DTD/svg10.dtd">
<svg version="1.0" xmlns="http://www.w3.org/2000/svg"
 width="1024.000000pt" height="1024.000000pt" viewBox="0 0 1024.000000 1024.000000"
 preserveAspectRatio="xMidYMid meet">
<metadata>
Created by potrace 1.16, written by Peter Selinger 2001-2019
</metadata>
<g transform="translate(0.000000,1024.000000) scale(0.100000,-0.100000)"
fill="#000000" stroke="none">
<path d="M4865 9894 c-365 -23 -631 -63 -940 -144 -566 -148 -1169 -435 -1615
-769 -568 -426 -1074 -1038 -1376 -1666 -85 -175 -172 -398 -254 -645 -146
-438 -207 -795 -217 -1265 -7 -347 11 -586 73 -960 65 -392 216 -862 385
-1197 l29 -57 -55 -113 c-139 -293 -204 -597 -192 -903 10 -238 52 -416 143
-604 48 -98 67 -124 137 -196 93 -94 171 -137 277 -154 40 -7 299 -11 684 -11
l618 0 37 -28 c177 -139 536 -339 796 -445 525 -214 1024 -319 1595 -333 553
-15 1048 57 1568 227 346 114 639 256 1005 491 l138 88 591 0 c387 0 614 4
657 11 256 43 442 285 522 675 26 129 36 410 20 554 -24 213 -81 415 -173 613
l-40 89 60 126 c204 425 353 933 411 1397 112 891 -27 1747 -421 2599 -276
597 -742 1182 -1282 1613 -269 214 -489 354 -807 512 -541 270 -1083 424
-1694 481 -115 11 -577 20 -680 14z m-148 -1276 c-3 -8 -6 -5 -6 6 -1 11 2 17
5 13 3 -3 4 -12 1 -19z m-279 -513 c-3 -3 -9 2 -12 12 -6 14 -5 15 5 6 7 -7
10 -15 7 -18z m-581 -271 c-3 -3 -12 -4 -19 -1 -8 3 -5 6 6 6 11 1 17 -2 13
-5z m-277 -157 c0 -1 -26 -27 -57 -57 l-58 -55 55 58 c50 53 60 62 60 54z
m-170 -191 c0 -2 -8 -10 -17 -17 -16 -13 -17 -12 -4 4 13 16 21 21 21 13z
m2290 -602 c118 -20 192 -47 235 -86 43 -37 60 -110 51 -222 -6 -90 -32 -152
-78 -191 -33 -28 -168 -99 -229 -121 l-38 -13 -6 67 c-14 162 -54 267 -135
355 -89 98 -179 149 -360 205 -23 7 -1 12 101 22 126 12 342 5 459 -16z m1754
-10 c110 -15 269 -60 339 -96 96 -48 156 -133 157 -221 0 -59 -17 -93 -70
-141 -57 -51 -104 -69 -296 -111 -20 -4 -22 1 -32 93 -20 170 -67 269 -174
366 -57 52 -169 116 -202 116 -9 0 -16 4 -16 8 0 12 166 4 294 -14z m-761 -73
c-53 -38 -116 -114 -152 -181 -46 -87 -64 -170 -65 -298 l-1 -114 -85 7 c-79
6 -352 44 -357 49 -2 2 -4 25 -5 52 -1 34 7 68 25 111 15 34 30 89 34 123 6
61 7 62 48 80 118 50 547 197 584 199 8 1 -4 -12 -26 -28z m-2055 -81 c-74
-66 -133 -155 -159 -242 -18 -59 -21 -88 -17 -189 2 -65 3 -119 1 -119 -2 0
-53 16 -113 35 -130 42 -318 136 -453 225 l-97 65 47 8 c246 41 290 54 643
190 107 42 197 76 200 76 3 0 -21 -22 -52 -49z m2307 -16 c19 -8 45 -55 45
-82 0 -34 -47 -67 -95 -67 -54 0 -85 25 -85 70 0 58 75 102 135 79z m-1975
-44 c48 -48 9 -120 -64 -120 -47 0 -76 23 -76 60 0 66 94 106 140 60z m2259
-105 c78 -40 40 -159 -56 -172 -37 -5 -45 -2 -73 25 -47 48 -39 115 18 146 35
19 76 20 111 1z m-1944 -30 c17 -17 25 -35 25 -60 0 -47 -14 -71 -52 -91 -64
-33 -138 11 -138 83 0 80 109 125 165 68z m1630 -149 c22 -33 5 -66 -33 -66
-33 0 -52 16 -52 45 0 48 58 62 85 21z m-1948 -32 c15 -24 15 -29 2 -53 -27
-48 -99 -33 -99 21 0 55 67 77 97 32z m478 -494 c-3 -5 -12 -10 -18 -10 -7 0
-6 4 3 10 19 12 23 12 15 0z m1152 -306 c-3 -3 -12 -4 -19 -1 -8 3 -5 6 6 6
11 1 17 -2 13 -5z m-3648 -2618 c16 -10 15 -248 -1 -264 -8 -8 -63 -12 -183
-12 -120 0 -175 -4 -183 -12 -17 -17 -17 -279 0 -296 8 -8 58 -12 158 -12 100
0 150 -4 158 -12 8 -8 12 -49 12 -117 0 -145 5 -141 -175 -141 -96 0 -145 -4
-153 -12 -8 -8 -12 -56 -12 -148 0 -92 4 -140 12 -148 8 -8 66 -12 193 -12
127 0 185 -4 193 -12 8 -8 12 -50 12 -123 0 -73 -4 -115 -12 -123 -9 -9 -99
-12 -344 -12 -293 0 -333 2 -338 16 -3 9 -6 332 -6 719 0 568 3 705 13 713 20
17 629 24 656 8z m1889 1 c15 -10 17 -229 2 -258 -10 -18 -23 -19 -189 -19
-140 0 -181 -3 -190 -14 -8 -9 -11 -60 -9 -157 l3 -144 154 -3 c132 -2 156 -5
167 -20 20 -26 19 -201 -2 -230 -14 -21 -22 -22 -158 -22 -110 0 -146 -3 -155
-14 -8 -9 -11 -60 -9 -157 l3 -144 184 -3 c118 -1 189 -7 198 -14 10 -8 13
-40 11 -132 l-3 -121 -335 0 -335 0 -3 705 c-1 388 0 715 3 727 3 15 14 23 33
25 60 7 618 2 630 -5z m-3009 -16 c153 -48 255 -155 297 -315 19 -70 18 -253
-2 -329 -42 -163 -149 -279 -294 -317 -24 -7 -92 -15 -150 -18 l-105 -7 -3
-214 c-1 -138 -6 -219 -13 -228 -9 -9 -44 -13 -135 -13 -112 0 -124 2 -134 19
-14 27 -14 1395 0 1422 10 18 24 19 244 19 201 0 243 -3 295 -19z m1856 5
c199 -53 310 -207 322 -446 8 -177 -32 -313 -123 -410 -85 -91 -154 -118 -324
-128 l-115 -7 -5 -225 -5 -225 -130 -3 c-113 -2 -131 0 -142 15 -10 13 -13
169 -13 712 0 632 1 696 17 713 15 16 36 18 242 18 157 0 241 -4 276 -14z
m1699 -8 c8 -13 63 -195 122 -406 59 -210 111 -379 114 -375 4 5 57 181 119
393 63 212 118 391 123 398 16 19 291 17 308 -3 13 -16 49 -830 53 -1210 l2
-230 -127 -3 c-116 -2 -128 -1 -137 17 -7 12 -11 172 -11 436 -1 230 -5 414
-9 409 -4 -5 -58 -157 -120 -339 -62 -181 -118 -333 -124 -337 -7 -4 -44 -8
-84 -8 -59 0 -74 3 -85 19 -7 10 -60 165 -118 345 -58 179 -108 326 -111 326
-3 0 -9 -190 -13 -422 -5 -272 -11 -427 -18 -435 -7 -9 -45 -13 -129 -13 -103
0 -120 2 -128 18 -6 11 -4 147 4 372 8 195 19 506 25 690 6 184 16 345 21 358
8 21 12 22 159 22 144 0 150 -1 164 -22z m1320 0 c14 -20 16 -104 16 -711 0
-455 -4 -695 -10 -708 -10 -17 -22 -19 -138 -19 -86 0 -132 4 -140 12 -17 17
-17 1419 0 1436 8 8 53 12 134 12 116 0 124 -1 138 -22z m518 5 c8 -10 93
-191 188 -403 95 -212 176 -392 182 -400 6 -10 7 132 3 389 -4 299 -3 407 6
417 14 17 229 20 260 4 18 -10 19 -29 19 -713 0 -550 -3 -707 -13 -720 -11
-15 -29 -17 -142 -15 l-130 3 -181 393 c-100 217 -185 396 -188 399 -3 4 -6
-169 -6 -383 0 -290 -3 -393 -12 -402 -17 -17 -239 -17 -256 0 -17 17 -17
1419 0 1436 8 8 52 12 133 12 104 0 124 -3 137 -17z m1696 5 c8 -8 12 -51 12
-128 0 -77 -4 -120 -12 -128 -8 -8 -54 -12 -139 -12 -94 0 -129 -3 -138 -13
-8 -10 -12 -184 -13 -588 l-3 -574 -131 -3 c-101 -2 -134 1 -142 11 -9 10 -13
177 -14 588 l-3 574 -132 3 c-104 2 -134 6 -144 18 -16 20 -15 230 2 250 16
19 838 21 857 2z"/>
<path d="M1574 2637 c-2 -7 -3 -102 -2 -212 l3 -200 80 -3 c98 -3 137 16 165
81 60 139 16 308 -88 337 -53 14 -152 13 -158 -3z"/>
<path d="M3444 2637 c-2 -7 -3 -102 -2 -212 l3 -200 80 -3 c66 -2 86 1 113 18
50 31 72 88 72 193 0 125 -28 179 -109 206 -47 15 -150 14 -157 -2z"/>
</g>
</svg>
